<?xml version="1.0" encoding="iso-8859-1"?>
<!-- Generator: Adobe Illustrator 27.8.1, SVG Export Plug-In . SVG Version: 6.00 Build 0)  -->
<svg version="1.1" id="Layer_1" xmlns="http://www.w3.org/2000/svg" xmlns:xlink="http://www.w3.org/1999/xlink" x="0px" y="0px"
	 viewBox="0 0 48 48" style="enable-background:new 0 0 48 48;" xml:space="preserve">
<path style="fill:#FFFFFF;" d="M38.508,42.024H9.492c-1.263,0-2.286-1.023-2.286-2.286v-0.005c0-1.263,1.023-2.286,2.286-2.286
	h29.016c1.263,0,2.286,1.023,2.286,2.286v0.005C40.794,41.001,39.771,42.024,38.508,42.024z"/>
<path style="fill:#FFFFFF;" d="M38.312,30.781H9.296c-1.263,0-2.286-1.023-2.286-2.286V28.49c0-1.263,1.023-2.286,2.286-2.286
	h29.016c1.263,0,2.286,1.023,2.286,2.286v0.005C40.598,29.757,39.574,30.781,38.312,30.781z"/>
<path style="fill:#FFFFFF;" d="M35.25,6.024h-22.5C9.022,6.024,6,9.049,6,12.781s3.022,6.757,6.75,6.757h22.5
	c3.728,0,6.75-3.025,6.75-6.757S38.978,6.024,35.25,6.024z M35.817,15.396H11.791c-1.443,0-2.612-1.171-2.612-2.615
	c0-1.444,1.17-2.615,2.612-2.615h24.025c1.443,0,2.612,1.171,2.612,2.615C38.429,14.225,37.259,15.396,35.817,15.396z"/>
</svg>
